<svg xmlns="http://www.w3.org/2000/svg" viewBox="0 0 1510.85 920.01"><defs><style>.cls-1,.cls-4{fill:#2ee4ff;}.cls-2,.cls-3{fill:#d00005;}.cls-3,.cls-4,.cls-5{font-size:40.42px;font-family:PressStart2P, "Press Start 2P";}.cls-5{fill:#fff;}</style></defs><title>glitch_logo_full_dark</title><g id="Layer_2" data-name="Layer 2"><g id="Layer_1-2" data-name="Layer 1"><g id="GlitchOS_Logo_Dark" data-name="GlitchOS Logo Dark"><g id="glitch_dark" data-name="glitch dark"><g id="glitch"><path class="cls-1" d="M91,530.59h209c-2.6,2.78-5.31,5.47-8.17,8.07C234.58,592.27,145.75,586.13,91,530.59Z"/><path class="cls-1" d="M550.21,337.62H294.28l3.93-1.95c54.52-21.8,109-40,167.19-50.89h7.27a289.31,289.31,0,0,1,4.54-51h76.13a217.14,217.14,0,0,0-3.13,103.88Z"/><path class="cls-1" d="M530,234.34H453.69a288.6,288.6,0,0,1,33.19-90.72h95.28A218.56,218.56,0,0,0,530,234.34Z"/><path class="cls-1" d="M628.11,337.62h198c-17.05,37.23-54.18,62.07-99,62.07S645.16,374.85,628.11,337.62Z"/><path class="cls-1" d="M289.42,337.62H74.71q4.31-4.75,9-9.23C145,274.38,234.75,277.45,289.42,337.62Z"/><path class="cls-1" d="M621.43,530.59H922a288,288,0,0,1-81.33,33.51A282,282,0,0,1,621.43,530.59Z"/><path class="cls-1" d="M554.41,423.42H466.54a292.18,292.18,0,0,1-26.59-71c-54.52,10.9-105.4,29.07-156.29,47.24a156.79,156.79,0,0,1,3.22,23.73H217.1a72.66,72.66,0,0,0-143.13,0H0a150.38,150.38,0,0,1,37.1-85.8H254.33a3.33,3.33,0,0,0,.25.28l.54-.28h259A217.81,217.81,0,0,0,554.41,423.42Z"/><path class="cls-1" d="M831.76,234.34H647.62c19.09-30,52.6-49.33,92.08-49.33S812.68,204.31,831.76,234.34Z"/><path class="cls-1" d="M863.07,337.62H663.85a112.48,112.48,0,0,1-9.44-45.57,110.9,110.9,0,0,1,16.1-58.31H856.42a111,111,0,0,1,16.09,58.31A112.48,112.48,0,0,1,863.07,337.62Z"/><path class="cls-1" d="M307.92,423.42c2,38.79-10.53,77.63-37.44,107.17H58.86c-.47-.47-.94-1-1.39-1.44C29.56,499.4,17.84,461.07,20.85,423.42H94.69a72.7,72.7,0,1,0,143.64,0Z"/><path class="cls-1" d="M919.69,423.42H996a294,294,0,0,1-102.5,107.17H588.41A288.73,288.73,0,0,1,488.27,423.42h88.2c40,51,102.15,83.92,171.62,83.92S879.68,474.42,919.69,423.42Z"/><path class="cls-1" d="M912.6,57.39H566.78a289.17,289.17,0,0,1,345.82,0Z"/><path class="cls-1" d="M598.9,144.22H503.06A294.19,294.19,0,0,1,580.3,56.79H929.84a294.22,294.22,0,0,1,77.25,87.43H911.24a217.17,217.17,0,0,0-312.34,0Z"/><path class="cls-1" d="M992.5,143.62a288.62,288.62,0,0,1,33.2,90.72H949.4a218.56,218.56,0,0,0-52.18-90.72Z"/><path class="cls-1" d="M1156.08,423.42a143.16,143.16,0,0,1,3.58-23.73c-50.9-21.81-101.79-36.34-156.31-47.24a287.22,287.22,0,0,1-27.52,71h-76a217.79,217.79,0,0,0,40.24-85.8h259l.54.28.28-.28H1411c19.5,23.57,30.92,53.84,32.64,85.8h-63.4a72.66,72.66,0,0,0-143.13,0Z"/><path class="cls-1" d="M973.58,233.74h76.14a290.26,290.26,0,0,1,4.53,51c58.16,10.91,116.31,29.09,174.47,50.89l3.93,1.95H976.71a217.14,217.14,0,0,0-3.13-103.88Z"/><path class="cls-1" d="M1446.19,337.62H1237.71c28.92-28.09,68.11-45.57,107.32-45.57,10.91,0,21.82,0,32.72,3.64A127.93,127.93,0,0,1,1446.19,337.62Z"/><path class="cls-1" d="M1247.2,530.59h208.35c-34.72,35.73-87.54,53-138.75,40.78A138.91,138.91,0,0,1,1247.2,530.59Z"/><path class="cls-1" d="M1460.5,467.36a138.27,138.27,0,0,1-34.37,63.23h-211A147.93,147.93,0,0,1,1177,423.42h80.86a72.7,72.7,0,1,0,143.64,0h63.22A158.64,158.64,0,0,1,1460.5,467.36Z"/></g><g id="glitch-2" data-name="glitch"><path class="cls-2" d="M137,530.59h209c-2.6,2.78-5.31,5.47-8.17,8.07C280.58,592.27,191.75,586.13,137,530.59Z"/><path class="cls-2" d="M596.21,337.62H340.28l3.93-1.95c54.52-21.8,109-40,167.19-50.89h7.27a289.31,289.31,0,0,1,4.54-51h76.13a217.14,217.14,0,0,0-3.13,103.88Z"/><path class="cls-2" d="M576,234.34H499.69a288.6,288.6,0,0,1,33.19-90.72h95.28A218.56,218.56,0,0,0,576,234.34Z"/><path class="cls-2" d="M674.11,337.62h198c-17.05,37.23-54.18,62.07-99,62.07S691.16,374.85,674.11,337.62Z"/><path class="cls-2" d="M335.42,337.62H120.71q4.31-4.75,9-9.23C191,274.38,280.75,277.45,335.42,337.62Z"/><path class="cls-2" d="M667.43,530.59H968a288,288,0,0,1-81.33,33.51A282,282,0,0,1,667.43,530.59Z"/><path class="cls-2" d="M600.41,423.42H512.54a292.18,292.18,0,0,1-26.59-71c-54.52,10.9-105.4,29.07-156.29,47.24a156.79,156.79,0,0,1,3.22,23.73H263.1a72.66,72.66,0,0,0-143.13,0H46a150.38,150.38,0,0,1,37.1-85.8H300.33a3.33,3.33,0,0,0,.25.28l.54-.28h259A217.81,217.81,0,0,0,600.41,423.42Z"/><path class="cls-2" d="M877.76,234.34H693.62c19.09-30,52.6-49.33,92.08-49.33S858.68,204.31,877.76,234.34Z"/><path class="cls-2" d="M909.07,337.62H709.85a112.48,112.48,0,0,1-9.44-45.57,110.9,110.9,0,0,1,16.1-58.31H902.42a111,111,0,0,1,16.09,58.31A112.48,112.48,0,0,1,909.07,337.62Z"/><path class="cls-2" d="M353.92,423.42c2,38.79-10.53,77.63-37.44,107.17H104.86c-.47-.47-.94-1-1.39-1.44C75.56,499.4,63.84,461.07,66.85,423.42h73.84a72.7,72.7,0,1,0,143.64,0Z"/><path class="cls-2" d="M965.69,423.42H1042a294,294,0,0,1-102.5,107.17H634.41A288.73,288.73,0,0,1,534.27,423.42h88.2c40,51,102.15,83.92,171.62,83.92S925.68,474.42,965.69,423.42Z"/><path class="cls-2" d="M958.6,57.39H612.78a289.17,289.17,0,0,1,345.82,0Z"/><path class="cls-2" d="M644.9,144.22H549.06A294.19,294.19,0,0,1,626.3,56.79H975.84a294.22,294.22,0,0,1,77.25,87.43H957.24a217.17,217.17,0,0,0-312.34,0Z"/><path class="cls-2" d="M1038.5,143.62a288.62,288.62,0,0,1,33.2,90.72H995.4a218.56,218.56,0,0,0-52.18-90.72Z"/><path class="cls-2" d="M1202.08,423.42a143.16,143.16,0,0,1,3.58-23.73c-50.9-21.81-101.79-36.34-156.31-47.24a287.22,287.22,0,0,1-27.52,71h-76a217.79,217.79,0,0,0,40.24-85.8h259l.54.28.28-.28H1457c19.5,23.57,30.92,53.84,32.64,85.8h-63.4a72.66,72.66,0,0,0-143.13,0Z"/><path class="cls-2" d="M1019.58,233.74h76.14a290.26,290.26,0,0,1,4.53,51c58.16,10.91,116.31,29.09,174.47,50.89l3.93,1.95H1022.71a217.14,217.14,0,0,0-3.13-103.88Z"/><path class="cls-2" d="M1492.19,337.62H1283.71c28.92-28.09,68.11-45.57,107.32-45.57,10.91,0,21.82,0,32.72,3.64A127.93,127.93,0,0,1,1492.19,337.62Z"/><path class="cls-2" d="M1293.2,530.59h208.35c-34.72,35.73-87.54,53-138.75,40.78A138.91,138.91,0,0,1,1293.2,530.59Z"/><path class="cls-2" d="M1506.5,467.36a138.27,138.27,0,0,1-34.37,63.23h-211A147.93,147.93,0,0,1,1223,423.42h80.86a72.7,72.7,0,1,0,143.64,0h63.22A158.64,158.64,0,0,1,1506.5,467.36Z"/></g><g id="glitch-3" data-name="glitch"><path d="M110,530.59h209c-2.6,2.78-5.31,5.47-8.17,8.07C253.58,592.27,164.75,586.13,110,530.59Z"/><path d="M569.21,337.62H313.28l3.93-1.95c54.52-21.8,109-40,167.19-50.89h7.27a289.31,289.31,0,0,1,4.54-51h76.13a217.14,217.14,0,0,0-3.13,103.88Z"/><path d="M549,234.34H472.69a288.6,288.6,0,0,1,33.19-90.72h95.28A218.56,218.56,0,0,0,549,234.34Z"/><path d="M647.11,337.62h198c-17.05,37.23-54.18,62.07-99,62.07S664.16,374.85,647.11,337.62Z"/><path d="M308.42,337.62H93.71q4.31-4.75,9-9.23C164,274.38,253.75,277.45,308.42,337.62Z"/><path d="M640.43,530.59H941a288,288,0,0,1-81.33,33.51A282,282,0,0,1,640.43,530.59Z"/><path d="M573.41,423.42H485.54a292.18,292.18,0,0,1-26.59-71c-54.52,10.9-105.4,29.07-156.29,47.24a156.79,156.79,0,0,1,3.22,23.73H236.1a72.66,72.66,0,0,0-143.13,0H19a150.38,150.38,0,0,1,37.1-85.8H273.33a3.33,3.33,0,0,0,.25.28l.54-.28h259A217.81,217.81,0,0,0,573.41,423.42Z"/><path d="M850.76,234.34H666.62c19.09-30,52.6-49.33,92.08-49.33S831.68,204.31,850.76,234.34Z"/><path d="M882.07,337.62H682.85a112.48,112.48,0,0,1-9.44-45.57,110.9,110.9,0,0,1,16.1-58.31H875.42a111,111,0,0,1,16.09,58.31A112.48,112.48,0,0,1,882.07,337.62Z"/><path d="M326.92,423.42c2,38.79-10.53,77.63-37.44,107.17H77.86c-.47-.47-.94-1-1.39-1.44C48.56,499.4,36.84,461.07,39.85,423.42h73.84a72.7,72.7,0,1,0,143.64,0Z"/><path d="M938.69,423.42H1015a294,294,0,0,1-102.5,107.17H607.41A288.73,288.73,0,0,1,507.27,423.42h88.2c40,51,102.15,83.92,171.62,83.92S898.68,474.42,938.69,423.42Z"/><path d="M931.6,57.39H585.78a289.17,289.17,0,0,1,345.82,0Z"/><path d="M617.9,144.22H522.06A294.19,294.19,0,0,1,599.3,56.79H948.84a294.22,294.22,0,0,1,77.25,87.43H930.24a217.17,217.17,0,0,0-312.34,0Z"/><path d="M1011.5,143.62a288.62,288.62,0,0,1,33.2,90.72H968.4a218.56,218.56,0,0,0-52.18-90.72Z"/><path d="M1175.08,423.42a143.16,143.16,0,0,1,3.58-23.73c-50.9-21.81-101.79-36.34-156.31-47.24a287.22,287.22,0,0,1-27.52,71h-76a217.79,217.79,0,0,0,40.24-85.8h259l.54.28.28-.28H1430c19.5,23.57,30.92,53.84,32.64,85.8h-63.4a72.66,72.66,0,0,0-143.13,0Z"/><path d="M992.58,233.74h76.14a290.26,290.26,0,0,1,4.53,51c58.16,10.91,116.31,29.09,174.47,50.89l3.93,1.95H995.71a217.14,217.14,0,0,0-3.13-103.88Z"/><path d="M1465.19,337.62H1256.71c28.92-28.09,68.11-45.57,107.32-45.57,10.91,0,21.82,0,32.72,3.64A127.93,127.93,0,0,1,1465.19,337.62Z"/><path d="M1266.2,530.59h208.35c-34.72,35.73-87.54,53-138.75,40.78A138.91,138.91,0,0,1,1266.2,530.59Z"/><path d="M1479.5,467.36a138.27,138.27,0,0,1-34.37,63.23h-211A147.93,147.93,0,0,1,1196,423.42h80.86a72.7,72.7,0,1,0,143.64,0h63.22A158.64,158.64,0,0,1,1479.5,467.36Z"/></g></g><g id="glitch_title" data-name="glitch title"><rect class="cls-2" x="108.52" y="808.06" width="48.08" height="9.42"/><polygon class="cls-2" points="116.27 817.48 116.27 835.4 132.3 835.4 132.3 878.18 164.35 878.18 164.35 817.48 116.27 817.48"/><rect class="cls-2" x="44.41" y="793.39" width="32.05" height="24.09"/><polygon class="cls-2" points="84.22 817.48 52.17 817.48 52.17 863.6 68.19 863.6 68.19 878.18 100.25 878.18 100.25 863.6 84.22 863.6 84.22 817.48"/><polygon class="cls-2" points="138.33 878.18 138.33 890.94 106.28 890.94 106.28 878.18 74.23 878.18 74.23 890.94 90.25 890.94 90.25 919.15 170.38 919.15 170.38 878.18 138.33 878.18"/><rect class="cls-1" x="69.74" y="808.06" width="48.08" height="9.42"/><polygon class="cls-1" points="77.49 817.48 77.49 835.4 93.52 835.4 93.52 878.18 125.57 878.18 125.57 817.48 77.49 817.48"/><rect class="cls-1" x="5.63" y="793.39" width="32.05" height="24.09"/><polygon class="cls-1" points="45.44 817.48 13.39 817.48 13.39 863.6 29.41 863.6 29.41 878.18 61.47 878.18 61.47 863.6 45.44 863.6 45.44 817.48"/><polygon class="cls-1" points="99.55 878.18 99.55 890.94 67.5 890.94 67.5 878.18 35.45 878.18 35.45 890.94 51.47 890.94 51.47 919.15 131.61 919.15 131.61 878.18 99.55 878.18"/><rect x="87.84" y="808.06" width="48.08" height="9.42"/><polygon points="95.59 817.48 95.59 835.4 111.62 835.4 111.62 878.18 143.67 878.18 143.67 817.48 95.59 817.48"/><polygon points="117.65 878.18 117.65 890.94 85.6 890.94 85.6 878.18 53.54 878.18 53.54 890.94 69.57 890.94 69.57 919.15 149.7 919.15 149.7 878.18 117.65 878.18"/><rect class="cls-2" x="138.58" y="780.98" width="32.05" height="12.41"/><rect class="cls-1" x="99.8" y="780.98" width="32.05" height="12.41"/><rect x="117.9" y="780.98" width="32.05" height="12.41"/><polygon class="cls-2" points="92.49 780.98 92.49 753.65 156.6 753.65 156.6 725.45 76.47 725.45 76.47 753.65 60.44 753.65 60.44 780.98 92.49 780.98"/><polygon class="cls-1" points="53.71 780.98 53.71 753.65 117.82 753.65 117.82 725.45 37.69 725.45 37.69 753.65 21.66 753.65 21.66 780.98 53.71 780.98"/><polygon points="71.81 780.98 71.81 753.65 135.91 753.65 135.91 725.45 55.78 725.45 55.78 753.65 39.76 753.65 39.76 780.98 71.81 780.98"/><rect x="23.73" y="793.39" width="32.05" height="24.09"/><polygon points="63.54 817.48 31.48 817.48 31.48 863.6 47.51 863.6 47.51 878.18 79.56 878.18 79.56 863.6 63.54 863.6 63.54 817.48"/><rect class="cls-2" x="308.38" y="780.98" width="32.05" height="12.41"/><polygon class="cls-2" points="266.38 780.98 298.43 780.98 298.43 725.45 250.35 725.45 250.35 753.65 266.38 753.65 266.38 780.98"/><rect class="cls-2" x="266.38" y="793.39" width="32.05" height="33.04"/><polygon class="cls-2" points="289.81 891.8 289.81 826.43 257.76 826.43 257.76 891.8 225.71 891.8 225.71 920.01 321.86 920.01 321.86 891.8 289.81 891.8"/><polygon class="cls-1" points="227.6 780.98 259.65 780.98 259.65 725.45 211.57 725.45 211.57 753.65 227.6 753.65 227.6 780.98"/><rect class="cls-1" x="269.6" y="780.98" width="32.05" height="12.41"/><rect class="cls-1" x="227.6" y="793.39" width="32.05" height="33.04"/><polygon class="cls-1" points="251.03 891.8 251.03 826.43 218.98 826.43 218.98 891.8 186.93 891.8 186.93 920.01 283.08 920.01 283.08 891.8 251.03 891.8"/><polygon points="245.69 780.98 277.75 780.98 277.75 725.45 229.67 725.45 229.67 753.65 245.69 753.65 245.69 780.98"/><rect x="287.69" y="780.98" width="32.05" height="12.41"/><rect x="245.69" y="793.39" width="32.05" height="33.04"/><polygon points="269.13 891.8 269.13 826.43 237.08 826.43 237.08 891.8 205.02 891.8 205.02 920.01 301.18 920.01 301.18 891.8 269.13 891.8"/><rect class="cls-2" x="402.34" y="723.45" width="32.05" height="28.2"/><rect class="cls-2" x="413.32" y="780.98" width="48.08" height="12.41"/><polygon class="cls-2" points="440.43 793.39 392.35 793.39 392.35 807.2 408.38 807.2 408.38 891.8 376.32 891.8 376.32 920.01 472.48 920.01 472.48 891.8 440.43 891.8 440.43 793.39"/><rect class="cls-1" x="363.56" y="723.45" width="32.05" height="28.2"/><polygon class="cls-1" points="401.65 793.39 353.57 793.39 353.57 807.2 369.6 807.2 369.6 891.8 337.54 891.8 337.54 920.01 433.7 920.01 433.7 891.8 401.65 891.8 401.65 793.39"/><rect class="cls-1" x="374.54" y="780.98" width="48.08" height="12.41"/><rect x="381.66" y="723.45" width="32.05" height="28.2"/><rect x="392.64" y="780.98" width="48.08" height="12.41"/><polygon points="419.75 793.39 371.67 793.39 371.67 807.2 387.69 807.2 387.69 891.8 355.64 891.8 355.64 920.01 451.8 920.01 451.8 891.8 419.75 891.8 419.75 793.39"/><rect class="cls-2" x="537.45" y="725.45" width="32.05" height="55.53"/><polygon class="cls-2" points="500.23 793.39 500.23 807.2 532.28 807.2 532.28 920.01 564.33 920.01 564.33 807.2 596.38 807.2 596.38 793.39 500.23 793.39"/><rect class="cls-1" x="498.67" y="725.45" width="32.05" height="55.53"/><polygon class="cls-1" points="461.45 793.39 461.45 807.2 493.5 807.2 493.5 920.01 525.55 920.01 525.55 807.2 557.61 807.2 557.61 793.39 461.45 793.39"/><rect x="516.77" y="725.45" width="32.05" height="55.53"/><rect class="cls-2" x="528.4" y="780.98" width="96.16" height="10.64"/><rect class="cls-2" x="528.33" y="791.62" width="96.16" height="1.77"/><rect class="cls-1" x="489.62" y="780.98" width="96.16" height="10.64"/><rect class="cls-1" x="489.55" y="791.62" width="96.16" height="1.77"/><rect x="507.71" y="780.98" width="96.16" height="10.64"/><rect x="507.65" y="791.62" width="96.16" height="1.77"/><polygon points="479.54 793.39 479.54 807.2 511.6 807.2 511.6 920.01 543.65 920.01 543.65 807.2 575.7 807.2 575.7 793.39 479.54 793.39"/><polygon class="cls-2" points="669.8 793.39 669.8 808.06 653.77 808.06 653.77 862.25 685.83 862.25 685.83 808.06 765.96 808.06 765.96 793.39 669.8 793.39"/><polygon class="cls-2" points="680.66 891.8 680.66 862.25 648.61 862.25 648.61 891.8 664.63 891.8 664.63 920.01 760.79 920.01 760.79 891.8 680.66 891.8"/><polygon class="cls-1" points="641.88 891.8 641.88 862.25 609.83 862.25 609.83 891.8 625.85 891.8 625.85 920.01 722.01 920.01 722.01 891.8 641.88 891.8"/><polygon class="cls-1" points="631.02 793.39 631.02 808.06 615 808.06 615 862.25 647.05 862.25 647.05 808.06 727.18 808.06 727.18 793.39 631.02 793.39"/><rect class="cls-2" x="693.8" y="780.98" width="96.16" height="12.41"/><rect class="cls-1" x="655.02" y="780.98" width="96.16" height="12.41"/><rect x="673.12" y="780.98" width="96.16" height="12.41"/><polygon points="649.12 793.39 649.12 808.06 633.09 808.06 633.09 862.25 665.15 862.25 665.15 808.06 745.28 808.06 745.28 793.39 649.12 793.39"/><polygon points="659.98 891.8 659.98 862.25 627.92 862.25 627.92 891.8 643.95 891.8 643.95 920.01 740.11 920.01 740.11 891.8 659.98 891.8"/><rect class="cls-2" x="817.32" y="725.45" width="32.05" height="55.53"/><polygon class="cls-2" points="913.48 793.39 817.32 793.39 817.32 834.27 849.37 834.27 849.37 808.06 897.45 808.06 897.45 834.27 929.5 834.27 929.5 808.06 913.48 808.06 913.48 793.39"/><rect class="cls-2" x="902.62" y="834.27" width="32.05" height="85.74"/><rect class="cls-2" x="822.49" y="834.27" width="32.05" height="85.74"/><rect class="cls-1" x="783.71" y="834.27" width="32.05" height="85.74"/><polygon class="cls-1" points="874.7 793.39 778.54 793.39 778.54 834.27 810.59 834.27 810.59 808.06 858.67 808.06 858.67 834.27 890.73 834.27 890.73 808.06 874.7 808.06 874.7 793.39"/><rect class="cls-1" x="778.54" y="725.45" width="32.05" height="55.53"/><rect class="cls-2" x="859.32" y="780.98" width="96.16" height="12.41"/><rect class="cls-1" x="820.54" y="780.98" width="96.16" height="12.41"/><rect x="838.64" y="780.98" width="96.16" height="12.41"/><rect class="cls-1" x="863.84" y="834.27" width="32.05" height="85.74"/><polygon points="892.8 793.39 796.64 793.39 796.64 834.27 828.69 834.27 828.69 808.06 876.77 808.06 876.77 834.27 908.82 834.27 908.82 808.06 892.8 808.06 892.8 793.39"/><rect x="796.64" y="725.45" width="32.05" height="55.53"/><rect x="801.81" y="834.27" width="32.05" height="85.74"/><rect x="881.94" y="834.27" width="32.05" height="85.74"/><polygon class="cls-2" points="1095.03 793.39 1095.03 884.91 1035.21 884.91 1035.21 793.39 995.32 793.39 995.32 884.91 1015.26 884.91 1015.26 920.01 1114.98 920.01 1114.98 884.91 1134.92 884.91 1134.92 793.39 1095.03 793.39"/><polygon class="cls-1" points="1056.26 793.39 1056.26 884.91 996.43 884.91 996.43 793.39 956.54 793.39 956.54 884.91 976.49 884.91 976.49 920.01 1076.2 920.01 1076.2 884.91 1096.14 884.91 1096.14 793.39 1056.26 793.39"/><polygon points="1074.35 793.39 1074.35 884.91 1014.52 884.91 1014.52 793.39 974.64 793.39 974.64 884.91 994.58 884.91 994.58 920.01 1094.29 920.01 1094.29 884.91 1114.24 884.91 1114.24 793.39 1074.35 793.39"/><rect class="cls-2" x="1132.03" y="780.98" width="39.88" height="12.41"/><rect class="cls-2" x="1032.32" y="780.98" width="39.88" height="12.41"/><rect class="cls-1" x="1093.26" y="780.98" width="39.88" height="12.41"/><rect class="cls-1" x="993.54" y="780.98" width="39.88" height="12.41"/><rect x="1111.35" y="780.98" width="39.88" height="12.41"/><rect x="1011.64" y="780.98" width="39.88" height="12.41"/><polygon class="cls-2" points="1025.73 764.64 1025.73 712.3 1085.56 712.3 1085.56 764.64 1125.44 764.64 1125.44 712.3 1105.5 712.3 1105.5 677.21 1005.79 677.21 1005.79 712.3 985.84 712.3 985.84 764.64 1025.73 764.64"/><rect class="cls-2" x="1095.03" y="764.64" width="39.88" height="16.34"/><rect class="cls-2" x="995.32" y="764.64" width="39.88" height="16.34"/><polygon class="cls-1" points="986.95 764.64 986.95 712.3 1046.78 712.3 1046.78 764.64 1086.66 764.64 1086.66 712.3 1066.72 712.3 1066.72 677.21 967.01 677.21 967.01 712.3 947.07 712.3 947.07 764.64 986.95 764.64"/><rect class="cls-1" x="1056.26" y="764.64" width="39.88" height="16.34"/><rect class="cls-1" x="956.54" y="764.64" width="39.88" height="16.34"/><polygon points="1005.05 764.64 1005.05 712.3 1064.87 712.3 1064.87 764.64 1104.76 764.64 1104.76 712.3 1084.82 712.3 1084.82 677.21 985.1 677.21 985.1 712.3 965.16 712.3 965.16 764.64 1005.05 764.64"/><rect x="1074.35" y="764.64" width="39.88" height="16.34"/><rect x="974.64" y="764.64" width="39.88" height="16.34"/><rect class="cls-2" x="1218.75" y="793.39" width="99.71" height="5.06"/><polygon class="cls-2" points="1308.12 814.73 1308.12 798.46 1208.41 798.46 1208.41 814.73 1288.18 814.73 1288.18 884.91 1228.35 884.91 1228.35 849.82 1188.47 849.82 1188.47 884.91 1208.41 884.91 1208.41 920.01 1308.12 920.01 1308.12 884.91 1328.07 884.91 1328.07 814.73 1308.12 814.73"/><polygon class="cls-1" points="1269.34 814.73 1269.34 798.46 1169.63 798.46 1169.63 814.73 1249.4 814.73 1249.4 884.91 1189.58 884.91 1189.58 849.82 1149.69 849.82 1149.69 884.91 1169.63 884.91 1169.63 920.01 1269.34 920.01 1269.34 884.91 1289.29 884.91 1289.29 814.73 1269.34 814.73"/><rect class="cls-1" x="1179.97" y="793.39" width="99.71" height="5.06"/><polygon class="cls-2" points="1238.69 780.98 1238.69 712.3 1278.58 712.3 1278.58 747.4 1318.46 747.4 1318.46 712.3 1298.52 712.3 1298.52 677.21 1218.75 677.21 1218.75 712.3 1198.81 712.3 1198.81 780.98 1238.69 780.98"/><polygon class="cls-1" points="1199.92 780.98 1199.92 712.3 1239.8 712.3 1239.8 747.4 1279.68 747.4 1279.68 712.3 1259.74 712.3 1259.74 677.21 1179.97 677.21 1179.97 712.3 1160.03 712.3 1160.03 780.98 1199.92 780.98"/><polygon points="1218.01 780.98 1218.01 712.3 1257.9 712.3 1257.9 747.4 1297.78 747.4 1297.78 712.3 1277.84 712.3 1277.84 677.21 1198.07 677.21 1198.07 712.3 1178.13 712.3 1178.13 780.98 1218.01 780.98"/><polygon class="cls-2" points="1270.69 780.98 1230.81 780.98 1230.81 781.49 1250.75 781.49 1250.75 793.39 1350.46 793.39 1350.46 781.49 1270.69 781.49 1270.69 780.98"/><polygon class="cls-1" points="1231.92 780.98 1192.03 780.98 1192.03 781.49 1211.97 781.49 1211.97 793.39 1311.68 793.39 1311.68 781.49 1231.92 781.49 1231.92 780.98"/><polygon points="1250.01 780.98 1210.13 780.98 1210.13 781.49 1230.07 781.49 1230.07 793.39 1329.78 793.39 1329.78 781.49 1250.01 781.49 1250.01 780.98"/><rect x="1198.07" y="793.39" width="99.71" height="5.06"/><polygon points="1287.44 814.73 1287.44 798.46 1187.73 798.46 1187.73 814.73 1267.5 814.73 1267.5 884.91 1207.67 884.91 1207.67 849.82 1167.79 849.82 1167.79 884.91 1187.73 884.91 1187.73 920.01 1287.44 920.01 1287.44 884.91 1307.38 884.91 1307.38 814.73 1287.44 814.73"/><rect class="cls-2" x="1382.54" y="886.17" width="112.19" height="19.73"/><rect class="cls-2" x="1393.75" y="905.9" width="112.19" height="13.87"/><rect class="cls-1" x="1343.77" y="886.17" width="112.19" height="19.73"/><rect class="cls-1" x="1354.97" y="905.9" width="112.19" height="13.87"/><rect x="1373.07" y="905.9" width="112.19" height="13.87"/><rect x="1361.86" y="886.17" width="112.19" height="19.73"/></g><g id="error"><text class="cls-3" transform="translate(714.89 306.49) scale(0.63 1)">error</text><text class="cls-4" transform="translate(704.46 306.49) scale(0.63 1)">error</text><text class="cls-5" transform="translate(709.67 306.49) scale(0.63 1)">error</text></g></g></g></g></svg>