<svg xmlns="http://www.w3.org/2000/svg" viewBox="0 0 1510.85 575.73"><defs><style>.cls-1,.cls-5{fill:#2ee4ff;}.cls-2,.cls-4{fill:#d00005;}.cls-3{fill:#fff;}.cls-4,.cls-5,.cls-6{font-size:40.42px;font-family:PressStart2P, "Press Start 2P";}</style></defs><title>glitch_logo_white_1</title><g id="Layer_2" data-name="Layer 2"><g id="Layer_1-2" data-name="Layer 1"><g id="GlitchOS_Logo_White" data-name="GlitchOS Logo White"><g id="glitch_white" data-name="glitch white"><g id="glitch"><path class="cls-1" d="M91,530.59h209c-2.6,2.78-5.31,5.47-8.17,8.07C234.58,592.27,145.75,586.13,91,530.59Z"/><path class="cls-1" d="M550.21,337.62H294.28l3.93-1.95c54.52-21.8,109-40,167.19-50.89h7.27a289.31,289.31,0,0,1,4.54-51h76.13a217.14,217.14,0,0,0-3.13,103.88Z"/><path class="cls-1" d="M530,234.34H453.69a288.6,288.6,0,0,1,33.19-90.72h95.28A218.56,218.56,0,0,0,530,234.34Z"/><path class="cls-1" d="M628.11,337.62h198c-17.05,37.23-54.18,62.07-99,62.07S645.16,374.85,628.11,337.62Z"/><path class="cls-1" d="M289.42,337.62H74.71q4.31-4.75,9-9.23C145,274.38,234.75,277.45,289.42,337.62Z"/><path class="cls-1" d="M621.43,530.59H922a288,288,0,0,1-81.33,33.51A282,282,0,0,1,621.43,530.59Z"/><path class="cls-1" d="M554.41,423.42H466.54a292.18,292.18,0,0,1-26.59-71c-54.52,10.9-105.4,29.07-156.29,47.24a156.79,156.79,0,0,1,3.22,23.73H217.1a72.66,72.66,0,0,0-143.13,0H0a150.38,150.38,0,0,1,37.1-85.8H254.33a3.33,3.33,0,0,0,.25.28l.54-.28h259A217.81,217.81,0,0,0,554.41,423.42Z"/><path class="cls-1" d="M831.76,234.34H647.62c19.09-30,52.6-49.33,92.08-49.33S812.68,204.31,831.76,234.34Z"/><path class="cls-1" d="M863.07,337.62H663.85a112.48,112.48,0,0,1-9.44-45.57,110.9,110.9,0,0,1,16.1-58.31H856.42a111,111,0,0,1,16.09,58.31A112.48,112.48,0,0,1,863.07,337.62Z"/><path class="cls-1" d="M307.92,423.42c2,38.79-10.53,77.63-37.44,107.17H58.86c-.47-.47-.94-1-1.39-1.44C29.56,499.4,17.84,461.07,20.85,423.42H94.69a72.7,72.7,0,1,0,143.64,0Z"/><path class="cls-1" d="M919.69,423.42H996a294,294,0,0,1-102.5,107.17H588.41A288.73,288.73,0,0,1,488.27,423.42h88.2c40,51,102.15,83.92,171.62,83.92S879.68,474.42,919.69,423.42Z"/><path class="cls-1" d="M912.6,57.39H566.78a289.17,289.17,0,0,1,345.82,0Z"/><path class="cls-1" d="M598.9,144.22H503.06A294.19,294.19,0,0,1,580.3,56.79H929.84a294.22,294.22,0,0,1,77.25,87.43H911.24a217.17,217.17,0,0,0-312.34,0Z"/><path class="cls-1" d="M992.5,143.62a288.62,288.62,0,0,1,33.2,90.72H949.4a218.56,218.56,0,0,0-52.18-90.72Z"/><path class="cls-1" d="M1156.08,423.42a143.16,143.16,0,0,1,3.58-23.73c-50.9-21.81-101.79-36.34-156.31-47.24a287.22,287.22,0,0,1-27.52,71h-76a217.79,217.79,0,0,0,40.24-85.8h259l.54.28.28-.28H1411c19.5,23.57,30.92,53.84,32.64,85.8h-63.4a72.66,72.66,0,0,0-143.13,0Z"/><path class="cls-1" d="M973.58,233.74h76.14a290.26,290.26,0,0,1,4.53,51c58.16,10.91,116.31,29.09,174.47,50.89l3.93,1.95H976.71a217.14,217.14,0,0,0-3.13-103.88Z"/><path class="cls-1" d="M1446.19,337.62H1237.71c28.92-28.09,68.11-45.57,107.32-45.57,10.91,0,21.82,0,32.72,3.64A127.93,127.93,0,0,1,1446.19,337.62Z"/><path class="cls-1" d="M1247.2,530.59h208.35c-34.72,35.73-87.54,53-138.75,40.78A138.91,138.91,0,0,1,1247.2,530.59Z"/><path class="cls-1" d="M1460.5,467.36a138.27,138.27,0,0,1-34.37,63.23h-211A147.93,147.93,0,0,1,1177,423.42h80.86a72.7,72.7,0,1,0,143.64,0h63.22A158.64,158.64,0,0,1,1460.5,467.36Z"/></g><g id="glitch-2" data-name="glitch"><path class="cls-2" d="M137,530.59h209c-2.6,2.78-5.31,5.47-8.17,8.07C280.58,592.27,191.75,586.13,137,530.59Z"/><path class="cls-2" d="M596.21,337.62H340.28l3.93-1.95c54.52-21.8,109-40,167.19-50.89h7.27a289.31,289.31,0,0,1,4.54-51h76.13a217.14,217.14,0,0,0-3.13,103.88Z"/><path class="cls-2" d="M576,234.34H499.69a288.6,288.6,0,0,1,33.19-90.72h95.28A218.56,218.56,0,0,0,576,234.34Z"/><path class="cls-2" d="M674.11,337.62h198c-17.05,37.23-54.18,62.07-99,62.07S691.16,374.85,674.11,337.62Z"/><path class="cls-2" d="M335.42,337.62H120.71q4.31-4.75,9-9.23C191,274.38,280.75,277.45,335.42,337.62Z"/><path class="cls-2" d="M667.43,530.59H968a288,288,0,0,1-81.33,33.51A282,282,0,0,1,667.43,530.59Z"/><path class="cls-2" d="M600.41,423.42H512.54a292.18,292.18,0,0,1-26.59-71c-54.52,10.9-105.4,29.07-156.29,47.24a156.79,156.79,0,0,1,3.22,23.73H263.1a72.66,72.66,0,0,0-143.13,0H46a150.38,150.38,0,0,1,37.1-85.8H300.33a3.33,3.33,0,0,0,.25.28l.54-.28h259A217.81,217.81,0,0,0,600.41,423.42Z"/><path class="cls-2" d="M877.76,234.34H693.62c19.09-30,52.6-49.33,92.08-49.33S858.68,204.31,877.76,234.34Z"/><path class="cls-2" d="M909.07,337.62H709.85a112.48,112.48,0,0,1-9.44-45.57,110.9,110.9,0,0,1,16.1-58.31H902.42a111,111,0,0,1,16.09,58.31A112.48,112.48,0,0,1,909.07,337.62Z"/><path class="cls-2" d="M353.92,423.42c2,38.79-10.53,77.63-37.44,107.17H104.86c-.47-.47-.94-1-1.39-1.44C75.56,499.4,63.84,461.07,66.85,423.42h73.84a72.7,72.7,0,1,0,143.64,0Z"/><path class="cls-2" d="M965.69,423.42H1042a294,294,0,0,1-102.5,107.17H634.41A288.73,288.73,0,0,1,534.27,423.42h88.2c40,51,102.15,83.92,171.62,83.92S925.68,474.42,965.69,423.42Z"/><path class="cls-2" d="M958.6,57.39H612.78a289.17,289.17,0,0,1,345.82,0Z"/><path class="cls-2" d="M644.9,144.22H549.06A294.19,294.19,0,0,1,626.3,56.79H975.84a294.22,294.22,0,0,1,77.25,87.43H957.24a217.17,217.17,0,0,0-312.34,0Z"/><path class="cls-2" d="M1038.5,143.62a288.62,288.62,0,0,1,33.2,90.72H995.4a218.56,218.56,0,0,0-52.18-90.72Z"/><path class="cls-2" d="M1202.08,423.42a143.16,143.16,0,0,1,3.58-23.73c-50.9-21.81-101.79-36.34-156.31-47.24a287.22,287.22,0,0,1-27.52,71h-76a217.79,217.79,0,0,0,40.24-85.8h259l.54.28.28-.28H1457c19.5,23.57,30.92,53.84,32.64,85.8h-63.4a72.66,72.66,0,0,0-143.13,0Z"/><path class="cls-2" d="M1019.58,233.74h76.14a290.26,290.26,0,0,1,4.53,51c58.16,10.91,116.31,29.09,174.47,50.89l3.93,1.95H1022.71a217.14,217.14,0,0,0-3.13-103.88Z"/><path class="cls-2" d="M1492.19,337.62H1283.71c28.92-28.09,68.11-45.57,107.32-45.57,10.91,0,21.82,0,32.72,3.64A127.93,127.93,0,0,1,1492.19,337.62Z"/><path class="cls-2" d="M1293.2,530.59h208.35c-34.72,35.73-87.54,53-138.75,40.78A138.91,138.91,0,0,1,1293.2,530.59Z"/><path class="cls-2" d="M1506.5,467.36a138.27,138.27,0,0,1-34.37,63.23h-211A147.93,147.93,0,0,1,1223,423.42h80.86a72.7,72.7,0,1,0,143.64,0h63.22A158.64,158.64,0,0,1,1506.5,467.36Z"/></g><g id="glitch-3" data-name="glitch"><path class="cls-3" d="M110,530.59h209c-2.6,2.78-5.31,5.47-8.17,8.07C253.58,592.27,164.75,586.13,110,530.59Z"/><path class="cls-3" d="M569.21,337.62H313.28l3.93-1.95c54.52-21.8,109-40,167.19-50.89h7.27a289.31,289.31,0,0,1,4.54-51h76.13a217.14,217.14,0,0,0-3.13,103.88Z"/><path class="cls-3" d="M549,234.34H472.69a288.6,288.6,0,0,1,33.19-90.72h95.28A218.56,218.56,0,0,0,549,234.34Z"/><path class="cls-3" d="M647.11,337.62h198c-17.05,37.23-54.18,62.07-99,62.07S664.16,374.85,647.11,337.62Z"/><path class="cls-3" d="M308.42,337.62H93.71q4.31-4.75,9-9.23C164,274.38,253.75,277.45,308.42,337.62Z"/><path class="cls-3" d="M640.43,530.59H941a288,288,0,0,1-81.33,33.51A282,282,0,0,1,640.43,530.59Z"/><path class="cls-3" d="M573.41,423.42H485.54a292.18,292.18,0,0,1-26.59-71c-54.52,10.9-105.4,29.07-156.29,47.24a156.79,156.79,0,0,1,3.22,23.73H236.1a72.66,72.66,0,0,0-143.13,0H19a150.38,150.38,0,0,1,37.1-85.8H273.33a3.33,3.33,0,0,0,.25.28l.54-.28h259A217.81,217.81,0,0,0,573.41,423.42Z"/><path class="cls-3" d="M850.76,234.34H666.62c19.09-30,52.6-49.33,92.08-49.33S831.68,204.31,850.76,234.34Z"/><path class="cls-3" d="M882.07,337.62H682.85a112.48,112.48,0,0,1-9.44-45.57,110.9,110.9,0,0,1,16.1-58.31H875.42a111,111,0,0,1,16.09,58.31A112.48,112.48,0,0,1,882.07,337.62Z"/><path class="cls-3" d="M326.92,423.42c2,38.79-10.53,77.63-37.44,107.17H77.86c-.47-.47-.94-1-1.39-1.44C48.56,499.4,36.84,461.07,39.85,423.42h73.84a72.7,72.7,0,1,0,143.64,0Z"/><path class="cls-3" d="M938.69,423.42H1015a294,294,0,0,1-102.5,107.17H607.41A288.73,288.73,0,0,1,507.27,423.42h88.2c40,51,102.15,83.92,171.62,83.92S898.68,474.42,938.69,423.42Z"/><path class="cls-3" d="M931.6,57.39H585.78a289.17,289.17,0,0,1,345.82,0Z"/><path class="cls-3" d="M617.9,144.22H522.06A294.19,294.19,0,0,1,599.3,56.79H948.84a294.22,294.22,0,0,1,77.25,87.43H930.24a217.17,217.17,0,0,0-312.34,0Z"/><path class="cls-3" d="M1011.5,143.62a288.62,288.62,0,0,1,33.2,90.72H968.4a218.56,218.56,0,0,0-52.18-90.72Z"/><path class="cls-3" d="M1175.08,423.42a143.16,143.16,0,0,1,3.58-23.73c-50.9-21.81-101.79-36.34-156.31-47.24a287.22,287.22,0,0,1-27.52,71h-76a217.79,217.79,0,0,0,40.24-85.8h259l.54.28.28-.28H1430c19.5,23.57,30.92,53.84,32.64,85.8h-63.4a72.66,72.66,0,0,0-143.13,0Z"/><path class="cls-3" d="M992.58,233.74h76.14a290.26,290.26,0,0,1,4.53,51c58.16,10.91,116.31,29.09,174.47,50.89l3.93,1.95H995.71a217.14,217.14,0,0,0-3.13-103.88Z"/><path class="cls-3" d="M1465.19,337.62H1256.71c28.92-28.09,68.11-45.57,107.32-45.57,10.91,0,21.82,0,32.72,3.64A127.93,127.93,0,0,1,1465.19,337.62Z"/><path class="cls-3" d="M1266.2,530.59h208.35c-34.72,35.73-87.54,53-138.75,40.78A138.91,138.91,0,0,1,1266.2,530.59Z"/><path class="cls-3" d="M1479.5,467.36a138.27,138.27,0,0,1-34.37,63.23h-211A147.93,147.93,0,0,1,1196,423.42h80.86a72.7,72.7,0,1,0,143.64,0h63.22A158.64,158.64,0,0,1,1479.5,467.36Z"/></g></g><g id="error"><text class="cls-4" transform="translate(714.89 306.49) scale(0.63 1)">error</text><text class="cls-5" transform="translate(704.46 306.49) scale(0.63 1)">error</text><text class="cls-6" transform="translate(709.67 306.49) scale(0.63 1)">error</text></g></g></g></g></svg>